<?xml version="1.0" encoding="UTF-8"?>
<svg width="172px" height="57px" viewBox="0 0 172 57" version="1.1" xmlns="http://www.w3.org/2000/svg" xmlns:xlink="http://www.w3.org/1999/xlink">
    <!-- Generator: Sketch 48.2 (47327) - http://www.bohemiancoding.com/sketch -->
    <title>startup-50</title>
    <desc>Created with Sketch.</desc>
    <defs></defs>
    <g id="Page-1" stroke="none" stroke-width="1" fill="none" fill-rule="evenodd">
        <g id="startup-50" fill="#2D3238">
            <path d="M52.474,18.365 C49.7599864,18.1349989 47.935338,16.9313442 47,14.754 L48.771,13.466 C48.9856677,14.2480039 49.43033,14.9034974 50.105,15.4325 C50.77967,15.9615026 51.5693288,16.3026659 52.474,16.456 L52.474,11.672 C51.4619949,11.4573323 50.6148368,11.219668 49.9325,10.959 C49.2501633,10.698332 48.6828356,10.3035027 48.2305,9.7745 C47.7781644,9.24549736 47.552,8.54400437 47.552,7.67 C47.552,6.48932743 47.9928289,5.48883744 48.8745,4.6685 C49.7561711,3.84816257 50.9559924,3.36900069 52.474,3.231 L52.474,1 L54.245,1 L54.245,3.254 C55.4256726,3.34600046 56.3993295,3.63733088 57.166,4.128 C57.9326705,4.61866912 58.6073304,5.33932858 59.19,6.29 L57.557,7.785 C57.1583313,6.95699586 56.7021692,6.33600207 56.1885,5.922 C55.6748308,5.50799793 55.0270039,5.25500046 54.245,5.163 L54.245,10.016 C55.2570051,10.2306677 56.1041633,10.4721653 56.7865,10.7405 C57.4688367,11.0088347 58.0361644,11.4151639 58.4885,11.9595 C58.9408356,12.5038361 59.167,13.2206622 59.167,14.11 C59.167,15.306006 58.7185045,16.2834962 57.8215,17.0425 C56.9244955,17.8015038 55.7323408,18.2423327 54.245,18.365 L54.245,20.596 L52.474,20.596 L52.474,18.365 Z M52.474,5.163 C51.615329,5.25500046 50.9636689,5.50416464 50.519,5.9105 C50.0743311,6.31683537 49.852,6.84966337 49.852,7.509 C49.852,8.10700299 50.0781644,8.5631651 50.5305,8.8775 C50.9828356,9.19183491 51.6306625,9.44866567 52.474,9.648 L52.474,5.163 Z M56.89,14.271 C56.89,13.6576636 56.6638356,13.1900016 56.2115,12.868 C55.7591644,12.5459984 55.103671,12.2776677 54.245,12.063 L54.245,16.479 C56.0083422,16.3103325 56.89,15.5743399 56.89,14.271 Z" id="$" fill-rule="nonzero"></path>
            <polygon id="k" points="161.696 47.388 157.88 51.204 157.88 56.28 155 56.28 155 30 157.88 30 157.88 47.604 167.204 38.28 170.804 38.28 163.784 45.3 171.236 56.28 167.744 56.28"></polygon>
            <path d="M2.67583764,55.3091801 C2.02714649,55.3091801 1.46381788,55.1811508 0.985834921,54.9250885 C0.507851964,54.6690262 0.179243609,54.2977415 0,53.8112231 L0.524925088,53.4655407 C0.652956237,53.8923112 0.913282336,54.2123843 1.30591119,54.4257695 C1.69854005,54.6391548 2.18078348,54.7458458 2.75265595,54.7458458 C3.33306383,54.7458458 3.78756759,54.6348871 4.11618087,54.4129665 C4.44479416,54.1910458 4.60909833,53.8965786 4.60909833,53.529556 C4.60909833,53.2137458 4.46826618,52.961955 4.18659765,52.774176 C3.90492912,52.5863969 3.40988277,52.4284942 2.70144375,52.3004631 C1.8052257,52.1382903 1.17361484,51.9206406 0.806592208,51.6475075 C0.43956958,51.3743744 0.256061019,50.986019 0.256061019,50.4824299 C0.256061019,50.1495489 0.358484402,49.8422787 0.563334241,49.5606102 C0.76818408,49.2789417 1.05838367,49.0570243 1.4339417,48.8948515 C1.80949974,48.7326787 2.23626384,48.6515936 2.7142468,48.6515936 C3.38854418,48.6515936 3.92840077,48.7796228 4.33383274,49.0356851 C4.73926471,49.2917474 5.0187952,49.6843704 5.17243257,50.2135658 L4.62190138,50.5336421 C4.38290991,49.6544948 3.7470314,49.2149278 2.7142468,49.2149278 C2.3728304,49.2149278 2.06342643,49.2704071 1.7860256,49.3813675 C1.50862478,49.4923278 1.29097509,49.6395614 1.13307001,49.8230727 C0.975164923,50.006584 0.896213565,50.2050293 0.896213565,50.4184146 C0.896213565,50.7683664 1.04131336,51.0414954 1.3315173,51.2378099 C1.62172124,51.4341243 2.13383815,51.5962946 2.86788341,51.7243258 C3.73849522,51.8694278 4.35303552,52.0785422 4.71152274,52.3516753 C5.07000996,52.6248084 5.24925088,53.0088961 5.24925088,53.5039499 C5.24925088,54.0502161 5.01666445,54.4876493 4.5514846,54.8162626 C4.08630476,55.1448759 3.46109536,55.3091801 2.67583764,55.3091801 Z M10.3320621,54.7714519 C10.1613539,54.9421601 9.9522395,55.074457 9.70471261,55.1683465 C9.45718572,55.262236 9.1840567,55.3091801 8.88531735,55.3091801 C8.36465734,55.3091801 7.95709763,55.1662141 7.66262599,54.8802778 C7.36815434,54.5943416 7.22092073,54.1611761 7.22092073,53.5807682 L7.22092073,49.3301553 L5.94061564,49.3301553 L5.94061564,48.7796241 L7.22092073,48.7796241 L7.22092073,47.1792427 L7.86107328,47 L7.86107328,48.7796241 L10.2680468,48.7796241 L10.2680468,49.3301553 L7.86107328,49.3301553 L7.86107328,53.4911468 C7.86107328,53.8923111 7.9570952,54.1974474 8.14914192,54.406565 C8.34118865,54.6156825 8.62071913,54.7202397 8.98774176,54.7202397 C9.41451225,54.7202397 9.78579702,54.562337 10.1016072,54.2465268 L10.3320621,54.7714519 Z M16.5159357,54.7586489 C16.729321,54.7586489 16.895759,54.7287754 17.0152547,54.6690275 L16.9768455,55.1811495 C16.8232082,55.2665036 16.6140938,55.3091801 16.349496,55.3091801 C16.0507567,55.3091801 15.8075012,55.2280949 15.6197221,55.0659221 C15.4319431,54.9037493 15.3252521,54.622085 15.2996459,54.2209207 C15.1033314,54.5623371 14.787526,54.8290647 14.3522201,55.0211114 C13.9169142,55.2131581 13.4602766,55.3091801 12.9822937,55.3091801 C12.3506733,55.3091801 11.8449579,55.1683479 11.4651321,54.8866794 C11.0853064,54.6050108 10.8953964,54.2038526 10.8953964,53.6831926 C10.8953964,52.693085 11.7062481,52.0529389 13.327976,51.7627349 L15.2868428,51.4170526 L15.2868428,50.8537183 C15.2868428,50.3415937 15.1353416,49.9404355 14.8323345,49.6502315 C14.5293275,49.3600276 14.1004295,49.2149278 13.5456279,49.2149278 C12.5299141,49.2149278 11.8470916,49.6672978 11.4971397,50.5720512 L11.0106238,50.2135658 C11.1984028,49.7099766 11.5099406,49.3237551 11.9452465,49.0548897 C12.3805524,48.7860243 12.9140076,48.6515936 13.5456279,48.6515936 C14.2882086,48.6515936 14.8707416,48.8329683 15.2932443,49.1957232 C15.7157471,49.5584782 15.9269954,50.0855318 15.9269954,50.7769 L15.9269954,54.0800872 C15.9269954,54.5324639 16.1233068,54.7586489 16.5159357,54.7586489 Z M13.0463089,54.7458458 C13.4047961,54.7458458 13.7547427,54.683965 14.0961591,54.5602016 C14.4375755,54.4364381 14.7213736,54.2529296 14.947562,54.0096704 C15.1737503,53.7664112 15.2868428,53.4740778 15.2868428,53.1326614 L15.2868428,51.9419777 L13.5328248,52.2620539 C12.8414566,52.3900851 12.337875,52.569326 12.0220648,52.7997821 C11.7062547,53.0302381 11.5483519,53.3247054 11.5483519,53.6831926 C11.5483519,54.024609 11.6806488,54.2870689 11.9452465,54.4705802 C12.2098442,54.6540915 12.5768614,54.7458458 13.0463089,54.7458458 Z M20.7537456,48.6515936 C21.095162,48.6515936 21.3640233,48.7241435 21.5603378,48.8692454 L21.3938981,49.4709888 C21.1975837,49.3173514 20.9244547,49.2405339 20.5745029,49.2405339 C20.2501573,49.2405339 19.9450209,49.3408235 19.6590847,49.5414056 C19.3731485,49.7419877 19.1426959,50.023652 18.96772,50.386407 C18.7927441,50.7491619 18.7052574,51.152454 18.7052574,51.5962953 L18.7052574,55.1811495 L18.0651049,55.1811495 L18.0651049,48.7796241 L18.602833,48.7796241 L18.6796513,50.0855353 C18.8588949,49.6331585 19.1256225,49.2810782 19.479842,49.0292836 C19.8340615,48.777489 20.2586918,48.6515936 20.7537456,48.6515936 Z M25.9773904,54.7714519 C25.8066822,54.9421601 25.5975677,55.074457 25.3500409,55.1683465 C25.102514,55.262236 24.8293849,55.3091801 24.5306456,55.3091801 C24.0099856,55.3091801 23.6024259,55.1662141 23.3079542,54.8802778 C23.0134826,54.5943416 22.866249,54.1611761 22.866249,53.5807682 L22.866249,49.3301553 L21.5859439,49.3301553 L21.5859439,48.7796241 L22.866249,48.7796241 L22.866249,47.1792427 L23.5064015,47 L23.5064015,48.7796241 L25.9133751,48.7796241 L25.9133751,49.3301553 L23.5064015,49.3301553 L23.5064015,53.4911468 C23.5064015,53.8923111 23.6024234,54.1974474 23.7944702,54.406565 C23.9865169,54.6156825 24.2660474,54.7202397 24.63307,54.7202397 C25.0598405,54.7202397 25.4311253,54.562337 25.7469354,54.2465268 L25.9773904,54.7714519 Z M29.1013348,55.3091801 C28.4526436,55.3091801 27.889315,55.1811508 27.4113321,54.9250885 C26.9333491,54.6690262 26.6047408,54.2977415 26.4254971,53.8112231 L26.9504222,53.4655407 C27.0784534,53.8923112 27.3387795,54.2123843 27.7314083,54.4257695 C28.1240372,54.6391548 28.6062806,54.7458458 29.1781531,54.7458458 C29.758561,54.7458458 30.2130647,54.6348871 30.541678,54.4129665 C30.8702913,54.1910458 31.0345955,53.8965786 31.0345955,53.529556 C31.0345955,53.2137458 30.8937633,52.961955 30.6120948,52.774176 C30.3304263,52.5863969 29.8353799,52.4284942 29.1269409,52.3004631 C28.2307228,52.1382903 27.599112,51.9206406 27.2320894,51.6475075 C26.8650667,51.3743744 26.6815582,50.986019 26.6815582,50.4824299 C26.6815582,50.1495489 26.7839815,49.8422787 26.9888314,49.5606102 C27.1936812,49.2789417 27.4838808,49.0570243 27.8594388,48.8948515 C28.2349969,48.7326787 28.661761,48.6515936 29.1397439,48.6515936 C29.8140413,48.6515936 30.3538979,48.7796228 30.7593299,49.0356851 C31.1647619,49.2917474 31.4442923,49.6843704 31.5979297,50.2135658 L31.0473985,50.5336421 C30.808407,49.6544948 30.1725285,49.2149278 29.1397439,49.2149278 C28.7983275,49.2149278 28.4889236,49.2704071 28.2115227,49.3813675 C27.9341219,49.4923278 27.7164722,49.6395614 27.5585671,49.8230727 C27.4006621,50.006584 27.3217107,50.2050293 27.3217107,50.4184146 C27.3217107,50.7683664 27.4668105,51.0414954 27.7570144,51.2378099 C28.0472184,51.4341243 28.5593353,51.5962946 29.2933806,51.7243258 C30.1639924,51.8694278 30.7785327,52.0785422 31.1370199,52.3516753 C31.4955071,52.6248084 31.674748,53.0088961 31.674748,53.5039499 C31.674748,54.0502161 31.4421616,54.4876493 30.9769817,54.8162626 C30.5118019,55.1448759 29.8865925,55.3091801 29.1013348,55.3091801 Z M42.1220376,54.7586489 C42.3354228,54.7586489 42.5018608,54.7287754 42.6213566,54.6690275 L42.5829474,55.1811495 C42.42931,55.2665036 42.2201956,55.3091801 41.9555979,55.3091801 C41.6568586,55.3091801 41.413603,55.2280949 41.225824,55.0659221 C41.038045,54.9037493 40.931354,54.622085 40.9057478,54.2209207 C40.7094333,54.5623371 40.3936279,54.8290647 39.958322,55.0211114 C39.5230161,55.2131581 39.0663785,55.3091801 38.5883955,55.3091801 C37.9567752,55.3091801 37.4510597,55.1683479 37.071234,54.8866794 C36.6914083,54.6050108 36.5014982,54.2038526 36.5014982,53.6831926 C36.5014982,52.693085 37.31235,52.0529389 38.9340779,51.7627349 L40.8929447,51.4170526 L40.8929447,50.8537183 C40.8929447,50.3415937 40.7414434,49.9404355 40.4384364,49.6502315 C40.1354293,49.3600276 39.7065314,49.2149278 39.1517298,49.2149278 C38.136016,49.2149278 37.4531934,49.6672978 37.1032416,50.5720512 L36.6167257,50.2135658 C36.8045047,49.7099766 37.1160425,49.3237551 37.5513484,49.0548897 C37.9866543,48.7860243 38.5201094,48.6515936 39.1517298,48.6515936 C39.8943104,48.6515936 40.4768434,48.8329683 40.8993462,49.1957232 C41.321849,49.5584782 41.5330972,50.0855318 41.5330972,50.7769 L41.5330972,54.0800872 C41.5330972,54.5324639 41.7294087,54.7586489 42.1220376,54.7586489 Z M38.6524108,54.7458458 C39.010898,54.7458458 39.3608446,54.683965 39.702261,54.5602016 C40.0436774,54.4364381 40.3274755,54.2529296 40.5536639,54.0096704 C40.7798522,53.7664112 40.8929447,53.4740778 40.8929447,53.1326614 L40.8929447,51.9419777 L39.1389267,52.2620539 C38.4475585,52.3900851 37.9439769,52.569326 37.6281667,52.7997821 C37.3123565,53.0302381 37.1544538,53.3247054 37.1544538,53.6831926 C37.1544538,54.024609 37.2867507,54.2870689 37.5513484,54.4705802 C37.8159461,54.6540915 38.1829632,54.7458458 38.6524108,54.7458458 Z M47,54.7714519 C46.8292918,54.9421601 46.6201774,55.074457 46.3726505,55.1683465 C46.1251236,55.262236 45.8519946,55.3091801 45.5532552,55.3091801 C45.0325952,55.3091801 44.6250355,55.1662141 44.3305639,54.8802778 C44.0360922,54.5943416 43.8888586,54.1611761 43.8888586,53.5807682 L43.8888586,49.3301553 L42.6085535,49.3301553 L42.6085535,48.7796241 L43.8888586,48.7796241 L43.8888586,47.1792427 L44.5290112,47 L44.5290112,48.7796241 L46.9359847,48.7796241 L46.9359847,49.3301553 L44.5290112,49.3301553 L44.5290112,53.4911468 C44.5290112,53.8923111 44.6250331,54.1974474 44.8170798,54.406565 C45.0091265,54.6156825 45.288657,54.7202397 45.6556797,54.7202397 C46.0824502,54.7202397 46.4537349,54.562337 46.7695451,54.2465268 L47,54.7714519 Z" id="starts-at"></path>
            <path d="M82.598,21.156 C85.9326833,21.156 88.8983204,21.8666596 91.495,23.288 C94.0916797,24.7093404 96.1006596,26.7183203 97.522,29.315 C98.9433404,31.9116796 99.654,34.9046497 99.654,38.294 C99.654,43.5966932 98.0276829,47.8333175 94.775,51.004 C91.5223171,54.1746825 87.162694,55.76 81.696,55.76 C71.69195,55.76 65.4600123,51.5233757 63,43.05 L66.936,41.082 C68.5213413,48.352703 73.3866259,51.988 81.532,51.988 C85.6866874,51.988 89.0349873,50.7443458 91.577,48.257 C94.1190127,45.7696542 95.39,42.5033536 95.39,38.458 C95.3353331,34.3033126 94.1053454,31.0096788 91.7,28.577 C89.2946546,26.1443212 86.0693536,24.928 82.024,24.928 C75.627968,24.928 70.9813478,26.9506464 68.084,30.996 L64.476,30.996 L67.428,0.82 L97.358,0.82 L97.358,4.592 L70.872,4.592 L68.74,25.584 L68.576,26.65 L68.658,26.65 C71.8286825,22.987315 76.4753027,21.156 82.598,21.156 Z M129.174,55.76 C122.777968,55.76 117.88535,53.3683573 114.496,48.585 C111.10665,43.8016427 109.412,36.9000451 109.412,27.88 C109.412,18.8599549 111.10665,11.9583572 114.496,7.175 C117.88535,2.39164275 122.777968,0 129.174,0 C135.515365,0 140.38065,2.39164275 143.77,7.175 C147.15935,11.9583572 148.854,18.8599549 148.854,27.88 C148.854,36.9000451 147.15935,43.8016427 143.77,48.585 C140.38065,53.3683573 135.515365,55.76 129.174,55.76 Z M129.174,52.07 C134.203358,52.07 138.043653,49.9926874 140.695,45.838 C143.346347,41.6833126 144.672,35.6973724 144.672,27.88 C144.672,20.0626276 143.346347,14.0766874 140.695,9.922 C138.043653,5.76731256 134.203358,3.69 129.174,3.69 C124.144642,3.69 120.29068,5.76731256 117.612,9.922 C114.93332,14.0766874 113.594,20.0626276 113.594,27.88 C113.594,35.6973724 114.93332,41.6833126 117.612,45.838 C120.29068,49.9926874 124.144642,52.07 129.174,52.07 Z" id="50"></path>
        </g>
    </g>
</svg>